{"asset": {"version": "2.0", "generator": "tools/build-chess-set.py", "copyright": "Chess Set by Riley Queen, Poly Haven, CC0"}, "scene": 0, "scenes": [{"nodes": [0, 1, 2, 3, 4, 5]}], "nodes": [{"name": "p", "mesh": 0}, {"name": "r", "mesh": 1}, {"name": "n", "mesh": 2}, {"name": "b", "mesh": 3}, {"name": "q", "mesh": 4}, {"name": "k", "mesh": 5}], "meshes": [{"name": "p", "primitives": [{"attributes": {"POSITION": 0, "NORMAL": 1, "TEXCOORD_0": 2}, "indices": 3}]}, {"name": "r", "primitives": [{"attributes": {"POSITION": 4, "NORMAL": 5, "TEXCOORD_0": 6}, "indices": 7}]}, {"name": "n", "primitives": [{"attributes": {"POSITION": 8, "NORMAL": 9, "TEXCOORD_0": 10}, "indices": 11}]}, {"name": "b", "primitives": [{"attributes": {"POSITION": 12, "NORMAL": 13, "TEXCOORD_0": 14}, "indices": 15}]}, {"name": "q", "primitives": [{"attributes": {"POSITION": 16, "NORMAL": 17, "TEXCOORD_0": 18}, "indices": 19}]}, {"name": "k", "primitives": [{"attributes": {"POSITION": 20, "NORMAL": 21, "TEXCOORD_0": 22}, "indices": 23}]}], "accessors": [{"bufferView": 0, "componentType": 5126, "count": 1028, "type": "VEC3", "min": [-0.2456488487331273, -1.2066482324365368e-07, -0.2458775874333051], "max": [0.24672299094662684, 0.9148203306581696, 0.245988022312757]}, {"bufferView": 1, "componentType": 5126, "count": 1028, "type": "VEC3"}, {"bufferView": 2, "componentType": 5126, "count": 1028, "type": "VEC2"}, {"bufferView": 3, "componentType": 5123, "count": 4920, "type": "SCALAR"}, {"bufferView": 4, "componentType": 5126, "count": 2016, "type": "VEC3", "min": [-0.3122312448660282, -0.0009773576938604484, -0.3089590027505291], "max": [0.3138842619367955, 1.0308295300330275, 0.31618862427559563]}, {"bufferView": 5, "componentType": 5126, "count": 2016, "type": "VEC3"}, {"bufferView": 6, "componentType": 5126, "count": 2016, "type": "VEC2"}, {"bufferView": 7, "componentType": 5123, "count": 8928, "type": "SCALAR"}, {"bufferView": 8, "componentType": 5126, "count": 1705, "type": "VEC3", "min": [-0.3303284771528906, -6.396783922746726e-08, -0.35768155161326615], "max": [0.3305324350339757, 1.277578333010809, 0.41538976508924264]}, {"bufferView": 9, "componentType": 5126, "count": 1705, "type": "VEC3"}, {"bufferView": 10, "componentType": 5126, "count": 1705, "type": "VEC2"}, {"bufferView": 11, "componentType": 5123, "count": 7986, "type": "SCALAR"}, {"bufferView": 12, "componentType": 5126, "count": 1738, "type": "VEC3", "min": [-0.2737235336649681, 0.0, -0.27536370024696133], "max": [0.2746433113651697, 1.4617847907430366, 0.2734133133470824]}, {"bufferView": 13, "componentType": 5126, "count": 1738, "type": "VEC3"}, {"bufferView": 14, "componentType": 5126, "count": 1738, "type": "VEC2"}, {"bufferView": 15, "componentType": 5123, "count": 8334, "type": "SCALAR"}, {"bufferView": 16, "componentType": 5126, "count": 1827, "type": "VEC3", "min": [-0.34555367279315974, -0.004540486698265097, -0.34719555277365616], "max": [0.34572393383701516, 1.540855212542537, 0.347201327561204]}, {"bufferView": 17, "componentType": 5126, "count": 1827, "type": "VEC3"}, {"bufferView": 18, "componentType": 5126, "count": 1827, "type": "VEC2"}, {"bufferView": 19, "componentType": 5123, "count": 8820, "type": "SCALAR"}, {"bufferView": 20, "componentType": 5126, "count": 2643, "type": "VEC3", "min": [-0.3538935130890988, 0.0, -0.35527778043167824], "max": [0.35350914069154665, 1.618350830739981, 0.35541190145895685]}, {"bufferView": 21, "componentType": 5126, "count": 2643, "type": "VEC3"}, {"bufferView": 22, "componentType": 5126, "count": 2643, "type": "VEC2"}, {"bufferView": 23, "componentType": 5123, "count": 12516, "type": "SCALAR"}], "bufferViews": [{"buffer": 0, "byteOffset": 0, "byteLength": 12336, "target": 34962}, {"buffer": 0, "byteOffset": 12336, "byteLength": 12336, "target": 34962}, {"buffer": 0, "byteOffset": 24672, "byteLength": 8224, "target": 34962}, {"buffer": 0, "byteOffset": 32896, "byteLength": 9840, "target": 34963}, {"buffer": 0, "byteOffset": 42736, "byteLength": 24192, "target": 34962}, {"buffer": 0, "byteOffset": 66928, "byteLength": 24192, "target": 34962}, {"buffer": 0, "byteOffset": 91120, "byteLength": 16128, "target": 34962}, {"buffer": 0, "byteOffset": 107248, "byteLength": 17856, "target": 34963}, {"buffer": 0, "byteOffset": 125104, "byteLength": 20460, "target": 34962}, {"buffer": 0, "byteOffset": 145564, "byteLength": 20460, "target": 34962}, {"buffer": 0, "byteOffset": 166024, "byteLength": 13640, "target": 34962}, {"buffer": 0, "byteOffset": 179664, "byteLength": 15972, "target": 34963}, {"buffer": 0, "byteOffset": 195636, "byteLength": 20856, "target": 34962}, {"buffer": 0, "byteOffset": 216492, "byteLength": 20856, "target": 34962}, {"buffer": 0, "byteOffset": 237348, "byteLength": 13904, "target": 34962}, {"buffer": 0, "byteOffset": 251252, "byteLength": 16668, "target": 34963}, {"buffer": 0, "byteOffset": 267920, "byteLength": 21924, "target": 34962}, {"buffer": 0, "byteOffset": 289844, "byteLength": 21924, "target": 34962}, {"buffer": 0, "byteOffset": 311768, "byteLength": 14616, "target": 34962}, {"buffer": 0, "byteOffset": 326384, "byteLength": 17640, "target": 34963}, {"buffer": 0, "byteOffset": 344024, "byteLength": 31716, "target": 34962}, {"buffer": 0, "byteOffset": 375740, "byteLength": 31716, "target": 34962}, {"buffer": 0, "byteOffset": 407456, "byteLength": 21144, "target": 34962}, {"buffer": 0, "byteOffset": 428600, "byteLength": 25032, "target": 34963}], "buffers": [{"uri": "staunton.bin", "byteLength": 453632}]}